<svg id="Layer_1" data-name="Layer 1" xmlns="http://www.w3.org/2000/svg" viewBox="0 0 841.89 595.28"><defs><style>.cls-1{fill:#4169e2;}.cls-2,.cls-3{fill:#193989;}.cls-3{font-size:34.84px;font-family:Conthrax-SemiBold, Conthrax;font-weight:600;letter-spacing:0.06em;}.cls-4{letter-spacing:0.08em;}.cls-5{letter-spacing:0.01em;}.cls-6{letter-spacing:0.06em;}</style></defs><path class="cls-1" d="M339.46,332.33c-10.59,17.18-29.49,27.6-52.61,27.6H203.14v-27.6H133.71v94.25H282.09c66.07,0,117.27-36.77,131.87-94.25ZM282.09,168.7H133.71v94.24h69.43V235h83.71c23.25,0,42.22,10.53,52.78,28H414C399.36,205.46,348.16,168.7,282.09,168.7Z"/><path class="cls-2" d="M524.1,332.33H449.76c14.61,57.48,65.85,94.25,132.26,94.25H708.18V359.93H577.26C554.15,359.93,534.92,349.51,524.1,332.33ZM582,168.7c-66.41,0-117.65,36.76-132.26,94.24h74.15c10.79-17.46,30.11-28,53.35-28H708.18V168.7Z"/><text class="cls-3" transform="translate(244.82 309.71)">DI<tspan class="cls-4" x="46.41" y="0">V</tspan><tspan class="cls-5" x="83.13" y="0">Y</tspan><tspan class="cls-6" x="114.7" y="0">ESH </tspan><tspan class="cls-1" x="225.64" y="0">CODES</tspan></text></svg>